<svg version="1.1" id="Layer_1" xmlns="http://www.w3.org/2000/svg" xmlns:xlink="http://www.w3.org/1999/xlink" x="0px" y="0px"
	 width="100%" viewBox="0 0 524 510" enable-background="new 0 0 524 510" xml:space="preserve">
<path fill="#FFFFFF" opacity="1.000000" stroke="none" 
	d="
M301.000000,511.000000 
	C200.690796,511.000000 100.881592,511.000000 1.036194,511.000000 
	C1.036194,341.065216 1.036194,171.130432 1.036194,1.097827 
	C175.559174,1.097827 350.118439,1.097827 524.838867,1.097827 
	C524.838867,170.999878 524.838867,340.999939 524.838867,511.000000 
	C450.463776,511.000000 375.981903,511.000000 301.000000,511.000000 
M299.209717,40.025806 
	C288.642944,39.081844 278.086884,37.494663 267.507294,37.317814 
	C238.897171,36.839573 211.139923,41.804188 184.423187,52.169498 
	C158.148483,62.363316 134.697723,77.315048 114.455254,96.717178 
	C91.761536,118.468811 74.279129,143.979782 62.529774,173.444351 
	C52.893398,197.610107 48.012878,222.617172 47.194031,248.402283 
	C46.626144,266.284912 48.788734,283.992889 52.825409,301.537628 
	C57.428196,321.542847 64.555588,340.449036 74.580063,358.302551 
	C88.950623,383.896362 107.623810,405.886902 130.878967,423.761047 
	C140.407883,431.085022 150.815994,437.265137 160.953674,444.052307 
	C161.968048,442.453979 162.608307,441.824677 162.804398,441.078613 
	C165.240982,431.808014 167.450867,422.474243 170.077621,413.258911 
	C171.202209,409.313538 170.661545,406.744720 166.705658,405.007477 
	C164.630524,404.096191 162.794052,402.608643 160.915085,401.288422 
	C143.542374,389.081757 128.708420,374.405548 116.313286,357.078094 
	C104.008881,339.877502 95.012482,321.122192 89.520424,300.885986 
	C84.215416,281.339020 82.111313,261.400024 83.671982,240.905930 
	C85.738152,213.773743 93.167999,188.522614 106.397545,164.937317 
	C118.769661,142.880630 135.209198,124.272507 155.507004,109.143959 
	C171.272202,97.393677 188.323425,87.871307 207.230988,82.420570 
	C219.732376,78.816620 232.585724,76.076431 245.466583,74.267326 
	C254.552277,72.991257 264.017029,73.190849 273.190399,74.044281 
	C287.518127,75.377228 287.472687,75.847038 296.192078,64.318993 
	C297.196564,62.990944 298.247223,61.697750 299.250305,60.368645 
	C303.596649,54.609631 307.933258,48.843273 312.655304,42.572430 
	C307.835876,41.653812 303.959137,40.914883 299.209717,40.025806 
M360.114624,404.600037 
	C347.170715,410.854462 334.554779,417.963715 321.179993,423.095154 
	C310.313477,427.264252 298.664185,429.901367 287.124481,431.651825 
	C277.351471,433.134247 267.167084,433.193665 257.298981,432.337006 
	C249.908218,431.695404 244.310349,431.548126 239.493683,438.599213 
	C233.349716,447.593323 225.886078,455.685883 218.306808,465.008972 
	C300.537201,478.356293 371.300385,457.515167 425.187195,394.927734 
	C483.854553,326.787842 494.731293,248.406998 459.875519,165.312729 
	C441.631744,121.820541 410.289673,88.957634 368.751984,65.281563 
	C365.516754,76.808708 362.517883,87.135147 359.814575,97.538399 
	C359.438660,98.985115 359.965179,101.644783 361.007721,102.337425 
	C382.688446,116.741417 400.572693,134.723694 414.640656,156.718796 
	C432.699707,184.953979 441.970612,215.805359 442.868652,249.102524 
	C443.306274,265.328766 441.365845,281.372589 437.327057,297.289154 
	C430.504639,324.175812 418.194214,348.003296 400.420349,369.118561 
	C388.932465,382.766113 375.856445,394.654785 360.114624,404.600037 
M291.939423,120.396149 
	C261.968781,167.394135 231.998138,214.392120 201.537109,262.159088 
	C218.678680,262.159088 234.982697,262.159088 251.791046,262.159088 
	C223.613708,341.115295 195.666672,419.426117 167.719635,497.736969 
	C168.067596,497.900848 168.415558,498.064697 168.763519,498.228577 
	C221.629593,418.153442 274.495667,338.078308 327.899017,257.189362 
	C309.060120,257.189362 291.594055,257.189362 273.470642,257.189362 
	C301.329315,178.159637 329.033203,99.569008 356.737091,20.978386 
	C356.377472,20.810785 356.017822,20.643185 355.658203,20.475584 
	C334.540863,53.573887 313.423523,86.672188 291.939423,120.396149 
M167.561035,499.361389 
	C167.561035,499.361389 167.447830,499.429932 167.561035,499.361389 
z"/>
<path fill="#589872" opacity="1.000000" stroke="none" 
	d="
M299.646057,40.100880 
	C303.959137,40.914883 307.835876,41.653812 312.655304,42.572430 
	C307.933258,48.843273 303.596649,54.609631 299.250305,60.368645 
	C298.247223,61.697750 297.196564,62.990944 296.192078,64.318993 
	C287.472687,75.847038 287.518127,75.377228 273.190399,74.044281 
	C264.017029,73.190849 254.552277,72.991257 245.466583,74.267326 
	C232.585724,76.076431 219.732376,78.816620 207.230988,82.420570 
	C188.323425,87.871307 171.272202,97.393677 155.507004,109.143959 
	C135.209198,124.272507 118.769661,142.880630 106.397545,164.937317 
	C93.167999,188.522614 85.738152,213.773743 83.671982,240.905930 
	C82.111313,261.400024 84.215416,281.339020 89.520424,300.885986 
	C95.012482,321.122192 104.008881,339.877502 116.313286,357.078094 
	C128.708420,374.405548 143.542374,389.081757 160.915085,401.288422 
	C162.794052,402.608643 164.630524,404.096191 166.705658,405.007477 
	C170.661545,406.744720 171.202209,409.313538 170.077621,413.258911 
	C167.450867,422.474243 165.240982,431.808014 162.804398,441.078613 
	C162.608307,441.824677 161.968048,442.453979 160.953674,444.052307 
	C150.815994,437.265137 140.407883,431.085022 130.878967,423.761047 
	C107.623810,405.886902 88.950623,383.896362 74.580063,358.302551 
	C64.555588,340.449036 57.428196,321.542847 52.825409,301.537628 
	C48.788734,283.992889 46.626144,266.284912 47.194031,248.402283 
	C48.012878,222.617172 52.893398,197.610107 62.529774,173.444351 
	C74.279129,143.979782 91.761536,118.468811 114.455254,96.717178 
	C134.697723,77.315048 158.148483,62.363316 184.423187,52.169498 
	C211.139923,41.804188 238.897171,36.839573 267.507294,37.317814 
	C278.086884,37.494663 288.642944,39.081844 299.646057,40.100880 
z"/>
<path fill="#5498D1" opacity="1.000000" stroke="none" 
	d="
M360.394592,404.365326 
	C375.856445,394.654785 388.932465,382.766113 400.420349,369.118561 
	C418.194214,348.003296 430.504639,324.175812 437.327057,297.289154 
	C441.365845,281.372589 443.306274,265.328766 442.868652,249.102524 
	C441.970612,215.805359 432.699707,184.953979 414.640656,156.718796 
	C400.572693,134.723694 382.688446,116.741417 361.007721,102.337425 
	C359.965179,101.644783 359.438660,98.985115 359.814575,97.538399 
	C362.517883,87.135147 365.516754,76.808708 368.751984,65.281563 
	C410.289673,88.957634 441.631744,121.820541 459.875519,165.312729 
	C494.731293,248.406998 483.854553,326.787842 425.187195,394.927734 
	C371.300385,457.515167 300.537201,478.356293 218.306808,465.008972 
	C225.886078,455.685883 233.349716,447.593323 239.493683,438.599213 
	C244.310349,431.548126 249.908218,431.695404 257.298981,432.337006 
	C267.167084,433.193665 277.351471,433.134247 287.124481,431.651825 
	C298.664185,429.901367 310.313477,427.264252 321.179993,423.095154 
	C334.554779,417.963715 347.170715,410.854462 360.394592,404.365326 
z"/>
<path fill="#020202" opacity="1.000000" stroke="none" 
	d="
M292.122803,120.083321 
	C313.423523,86.672188 334.540863,53.573887 355.658203,20.475584 
	C356.017822,20.643185 356.377472,20.810785 356.737091,20.978386 
	C329.033203,99.569008 301.329315,178.159637 273.470642,257.189362 
	C291.594055,257.189362 309.060120,257.189362 327.899017,257.189362 
	C274.495667,338.078308 221.629593,418.153442 168.763519,498.228577 
	C168.415558,498.064697 168.067596,497.900848 167.719635,497.736969 
	C195.666672,419.426117 223.613708,341.115295 251.791046,262.159088 
	C234.982697,262.159088 218.678680,262.159088 201.537109,262.159088 
	C231.998138,214.392120 261.968781,167.394135 292.122803,120.083321 
z"/>
<path fill="#020202" opacity="1.000000" stroke="none" 
	d="
M167.504425,499.395660 
	C167.447830,499.429932 167.561035,499.361389 167.504425,499.395660 
z"/>
</svg>